<svg height="3838" width="720" xmlns="http://www.w3.org/2000/svg">
<rect height="3838" fill="#555" width="720"></rect>
<text fill="#7f7" font-family="Courier New" font-size="12" xml:space="preserve">
<tspan x="10" y="26">31 megabytes installed</tspan>
<tspan x="10" y="42"></tspan>
<tspan x="10" y="58">node_modules</tspan>
<tspan x="10" y="74">└─┬ grunt-node-inspector@0.4.2 </tspan>
<tspan x="10" y="90">  └─┬ node-inspector@0.12.10 </tspan>
<tspan x="10" y="106">    ├── async@0.9.2 </tspan>
<tspan x="10" y="122">    ├─┬ biased-opener@0.2.8 </tspan>
<tspan x="10" y="138">    │ ├─┬ browser-launcher2@0.4.6 </tspan>
<tspan x="10" y="154">    │ │ ├── headless@0.1.7 </tspan>
<tspan x="10" y="170">    │ │ ├── lodash@2.4.2 </tspan>
<tspan x="10" y="186">    │ │ ├─┬ mkdirp@0.5.1 </tspan>
<tspan x="10" y="202">    │ │ │ └── minimist@0.0.8 </tspan>
<tspan x="10" y="218">    │ │ ├─┬ osenv@0.1.4 </tspan>
<tspan x="10" y="234">    │ │ │ ├── os-homedir@1.0.2 </tspan>
<tspan x="10" y="250">    │ │ │ └── os-tmpdir@1.0.2 </tspan>
<tspan x="10" y="266">    │ │ ├─┬ plist@1.2.0 </tspan>
<tspan x="10" y="282">    │ │ │ ├── base64-js@0.0.8 </tspan>
<tspan x="10" y="298">    │ │ │ ├── util-deprecate@1.0.2 </tspan>
<tspan x="10" y="314">    │ │ │ ├─┬ xmlbuilder@4.0.0 </tspan>
<tspan x="10" y="330">    │ │ │ │ └── lodash@3.10.1 </tspan>
<tspan x="10" y="346">    │ │ │ └── xmldom@0.1.27 </tspan>
<tspan x="10" y="362">    │ │ ├── rimraf@2.2.8 </tspan>
<tspan x="10" y="378">    │ │ ├── uid@0.0.2 </tspan>
<tspan x="10" y="394">    │ │ └─┬ win-detect-browsers@1.0.2 </tspan>
<tspan x="10" y="410">    │ │   ├── after@0.8.2 </tspan>
<tspan x="10" y="426">    │ │   ├── xtend@4.0.1 </tspan>
<tspan x="10" y="442">    │ │   └── yargs@1.3.3 </tspan>
<tspan x="10" y="458">    │ ├── minimist@1.2.0 </tspan>
<tspan x="10" y="474">    │ └─┬ x-default-browser@0.3.1 </tspan>
<tspan x="10" y="490">    │   └─┬ default-browser-id@1.0.4 </tspan>
<tspan x="10" y="506">    │     ├─┬ bplist-parser@0.1.1 </tspan>
<tspan x="10" y="522">    │     │ └── big-integer@1.6.21 </tspan>
<tspan x="10" y="538">    │     ├─┬ meow@3.7.0 </tspan>
<tspan x="10" y="554">    │     │ ├── camelcase-keys@2.1.0 </tspan>
<tspan x="10" y="570">    │     │ ├─┬ loud-rejection@1.6.0 </tspan>
<tspan x="10" y="586">    │     │ │ └─┬ currently-unhandled@0.4.1 </tspan>
<tspan x="10" y="602">    │     │ │   └── array-find-index@1.0.2 </tspan>
<tspan x="10" y="618">    │     │ ├── map-obj@1.0.1 </tspan>
<tspan x="10" y="634">    │     │ ├─┬ normalize-package-data@2.3.6 </tspan>
<tspan x="10" y="650">    │     │ │ ├── hosted-git-info@2.4.2 </tspan>
<tspan x="10" y="666">    │     │ │ ├─┬ is-builtin-module@1.0.0 </tspan>
<tspan x="10" y="682">    │     │ │ │ └── builtin-modules@1.1.1 </tspan>
<tspan x="10" y="698">    │     │ │ └─┬ validate-npm-package-license@3.0.1 </tspan>
<tspan x="10" y="714">    │     │ │   ├─┬ spdx-correct@1.0.2 </tspan>
<tspan x="10" y="730">    │     │ │   │ └── spdx-license-ids@1.2.2 </tspan>
<tspan x="10" y="746">    │     │ │   └── spdx-expression-parse@1.0.4 </tspan>
<tspan x="10" y="762">    │     │ ├── object-assign@4.1.1 </tspan>
<tspan x="10" y="778">    │     │ ├─┬ read-pkg-up@1.0.1 </tspan>
<tspan x="10" y="794">    │     │ │ ├─┬ find-up@1.1.2 </tspan>
<tspan x="10" y="810">    │     │ │ │ ├── path-exists@2.1.0 </tspan>
<tspan x="10" y="826">    │     │ │ │ └─┬ pinkie-promise@2.0.1 </tspan>
<tspan x="10" y="842">    │     │ │ │   └── pinkie@2.0.4 </tspan>
<tspan x="10" y="858">    │     │ │ └─┬ read-pkg@1.1.0 </tspan>
<tspan x="10" y="874">    │     │ │   ├─┬ load-json-file@1.1.0 </tspan>
<tspan x="10" y="890">    │     │ │   │ ├─┬ parse-json@2.2.0 </tspan>
<tspan x="10" y="906">    │     │ │   │ │ └─┬ error-ex@1.3.1 </tspan>
<tspan x="10" y="922">    │     │ │   │ │   └── is-arrayish@0.2.1 </tspan>
<tspan x="10" y="938">    │     │ │   │ ├── pify@2.3.0 </tspan>
<tspan x="10" y="954">    │     │ │   │ └─┬ strip-bom@2.0.0 </tspan>
<tspan x="10" y="970">    │     │ │   │   └── is-utf8@0.2.1 </tspan>
<tspan x="10" y="986">    │     │ │   └── path-type@1.1.0 </tspan>
<tspan x="10" y="1002">    │     │ ├─┬ redent@1.0.0 </tspan>
<tspan x="10" y="1018">    │     │ │ ├─┬ indent-string@2.1.0 </tspan>
<tspan x="10" y="1034">    │     │ │ │ └─┬ repeating@2.0.1 </tspan>
<tspan x="10" y="1050">    │     │ │ │   └── is-finite@1.0.2 </tspan>
<tspan x="10" y="1066">    │     │ │ └─┬ strip-indent@1.0.1 </tspan>
<tspan x="10" y="1082">    │     │ │   └── get-stdin@4.0.1 </tspan>
<tspan x="10" y="1098">    │     │ └── trim-newlines@1.0.0 </tspan>
<tspan x="10" y="1114">    │     └── untildify@2.1.0 </tspan>
<tspan x="10" y="1130">    ├─┬ debug@2.6.3 </tspan>
<tspan x="10" y="1146">    │ └── ms@0.7.2 </tspan>
<tspan x="10" y="1162">    ├─┬ express@4.15.2 </tspan>
<tspan x="10" y="1178">    │ ├─┬ accepts@1.3.3 </tspan>
<tspan x="10" y="1194">    │ │ ├─┬ mime-types@2.1.15 </tspan>
<tspan x="10" y="1210">    │ │ │ └── mime-db@1.27.0 </tspan>
<tspan x="10" y="1226">    │ │ └── negotiator@0.6.1 </tspan>
<tspan x="10" y="1242">    │ ├── array-flatten@1.1.1 </tspan>
<tspan x="10" y="1258">    │ ├── content-disposition@0.5.2 </tspan>
<tspan x="10" y="1274">    │ ├── content-type@1.0.2 </tspan>
<tspan x="10" y="1290">    │ ├── cookie@0.3.1 </tspan>
<tspan x="10" y="1306">    │ ├── cookie-signature@1.0.6 </tspan>
<tspan x="10" y="1322">    │ ├── debug@2.6.1 </tspan>
<tspan x="10" y="1338">    │ ├── depd@1.1.0 </tspan>
<tspan x="10" y="1354">    │ ├── encodeurl@1.0.1 </tspan>
<tspan x="10" y="1370">    │ ├── escape-html@1.0.3 </tspan>
<tspan x="10" y="1386">    │ ├── etag@1.8.0 </tspan>
<tspan x="10" y="1402">    │ ├─┬ finalhandler@1.0.1 </tspan>
<tspan x="10" y="1418">    │ │ └── unpipe@1.0.0 </tspan>
<tspan x="10" y="1434">    │ ├── fresh@0.5.0 </tspan>
<tspan x="10" y="1450">    │ ├── merge-descriptors@1.0.1 </tspan>
<tspan x="10" y="1466">    │ ├── methods@1.1.2 </tspan>
<tspan x="10" y="1482">    │ ├─┬ on-finished@2.3.0 </tspan>
<tspan x="10" y="1498">    │ │ └── ee-first@1.1.1 </tspan>
<tspan x="10" y="1514">    │ ├── parseurl@1.3.1 </tspan>
<tspan x="10" y="1530">    │ ├── path-to-regexp@0.1.7 </tspan>
<tspan x="10" y="1546">    │ ├─┬ proxy-addr@1.1.4 </tspan>
<tspan x="10" y="1562">    │ │ ├── forwarded@0.1.0 </tspan>
<tspan x="10" y="1578">    │ │ └── ipaddr.js@1.3.0 </tspan>
<tspan x="10" y="1594">    │ ├── qs@6.4.0 </tspan>
<tspan x="10" y="1610">    │ ├── range-parser@1.2.0 </tspan>
<tspan x="10" y="1626">    │ ├─┬ send@0.15.1 </tspan>
<tspan x="10" y="1642">    │ │ ├── debug@2.6.1 </tspan>
<tspan x="10" y="1658">    │ │ ├── destroy@1.0.4 </tspan>
<tspan x="10" y="1674">    │ │ ├── http-errors@1.6.1 </tspan>
<tspan x="10" y="1690">    │ │ └── mime@1.3.4 </tspan>
<tspan x="10" y="1706">    │ ├── serve-static@1.12.1 </tspan>
<tspan x="10" y="1722">    │ ├── setprototypeof@1.0.3 </tspan>
<tspan x="10" y="1738">    │ ├── statuses@1.3.1 </tspan>
<tspan x="10" y="1754">    │ ├─┬ type-is@1.6.15 </tspan>
<tspan x="10" y="1770">    │ │ └── media-typer@0.3.0 </tspan>
<tspan x="10" y="1786">    │ ├── utils-merge@1.0.0 </tspan>
<tspan x="10" y="1802">    │ └── vary@1.1.1 </tspan>
<tspan x="10" y="1818">    ├─┬ glob@5.0.15 </tspan>
<tspan x="10" y="1834">    │ ├─┬ inflight@1.0.6 </tspan>
<tspan x="10" y="1850">    │ │ └── wrappy@1.0.2 </tspan>
<tspan x="10" y="1866">    │ ├── inherits@2.0.3 </tspan>
<tspan x="10" y="1882">    │ ├─┬ minimatch@3.0.3 </tspan>
<tspan x="10" y="1898">    │ │ └─┬ brace-expansion@1.1.7 </tspan>
<tspan x="10" y="1914">    │ │   ├── balanced-match@0.4.2 </tspan>
<tspan x="10" y="1930">    │ │   └── concat-map@0.0.1 </tspan>
<tspan x="10" y="1946">    │ └── once@1.4.0 </tspan>
<tspan x="10" y="1962">    ├── path-is-absolute@1.0.1 </tspan>
<tspan x="10" y="1978">    ├─┬ rc@1.2.1 </tspan>
<tspan x="10" y="1994">    │ ├── deep-extend@0.4.1 </tspan>
<tspan x="10" y="2010">    │ ├── ini@1.3.4 </tspan>
<tspan x="10" y="2026">    │ └── strip-json-comments@2.0.1 </tspan>
<tspan x="10" y="2042">    ├── semver@4.3.6 </tspan>
<tspan x="10" y="2058">    ├─┬ serve-favicon@2.4.2 </tspan>
<tspan x="10" y="2074">    │ └── ms@1.0.0 </tspan>
<tspan x="10" y="2090">    ├─┬ strong-data-uri@1.0.4 </tspan>
<tspan x="10" y="2106">    │ └── truncate@1.0.5 </tspan>
<tspan x="10" y="2122">    ├─┬ v8-debug@0.7.7 </tspan>
<tspan x="10" y="2138">    │ ├── nan@2.6.2 </tspan>
<tspan x="10" y="2154">    │ └─┬ node-pre-gyp@0.6.34 </tspan>
<tspan x="10" y="2170">    │   ├─┬ nopt@4.0.1 </tspan>
<tspan x="10" y="2186">    │   │ └── abbrev@1.1.0 </tspan>
<tspan x="10" y="2202">    │   ├─┬ npmlog@4.0.2 </tspan>
<tspan x="10" y="2218">    │   │ ├─┬ are-we-there-yet@1.1.2 </tspan>
<tspan x="10" y="2234">    │   │ │ └── delegates@1.0.0 </tspan>
<tspan x="10" y="2250">    │   │ ├── console-control-strings@1.1.0 </tspan>
<tspan x="10" y="2266">    │   │ ├─┬ gauge@2.7.3 </tspan>
<tspan x="10" y="2282">    │   │ │ ├── aproba@1.1.1 </tspan>
<tspan x="10" y="2298">    │   │ │ ├── has-unicode@2.0.1 </tspan>
<tspan x="10" y="2314">    │   │ │ ├── signal-exit@3.0.2 </tspan>
<tspan x="10" y="2330">    │   │ │ └── wide-align@1.1.0 </tspan>
<tspan x="10" y="2346">    │   │ └── set-blocking@2.0.0 </tspan>
<tspan x="10" y="2362">    │   ├─┬ request@2.81.0 </tspan>
<tspan x="10" y="2378">    │   │ ├── aws-sign2@0.6.0 </tspan>
<tspan x="10" y="2394">    │   │ ├── aws4@1.6.0 </tspan>
<tspan x="10" y="2410">    │   │ ├── caseless@0.12.0 </tspan>
<tspan x="10" y="2426">    │   │ ├─┬ combined-stream@1.0.5 </tspan>
<tspan x="10" y="2442">    │   │ │ └── delayed-stream@1.0.0 </tspan>
<tspan x="10" y="2458">    │   │ ├── extend@3.0.0 </tspan>
<tspan x="10" y="2474">    │   │ ├── forever-agent@0.6.1 </tspan>
<tspan x="10" y="2490">    │   │ ├─┬ form-data@2.1.4 </tspan>
<tspan x="10" y="2506">    │   │ │ └── asynckit@0.4.0 </tspan>
<tspan x="10" y="2522">    │   │ ├─┬ har-validator@4.2.1 </tspan>
<tspan x="10" y="2538">    │   │ │ ├─┬ ajv@4.11.7 </tspan>
<tspan x="10" y="2554">    │   │ │ │ ├── co@4.6.0 </tspan>
<tspan x="10" y="2570">    │   │ │ │ └─┬ json-stable-stringify@1.0.1 </tspan>
<tspan x="10" y="2586">    │   │ │ │   └── jsonify@0.0.0 </tspan>
<tspan x="10" y="2602">    │   │ │ └── har-schema@1.0.5 </tspan>
<tspan x="10" y="2618">    │   │ ├─┬ hawk@3.1.3 </tspan>
<tspan x="10" y="2634">    │   │ │ ├── boom@2.10.1 </tspan>
<tspan x="10" y="2650">    │   │ │ ├── cryptiles@2.0.5 </tspan>
<tspan x="10" y="2666">    │   │ │ ├── hoek@2.16.3 </tspan>
<tspan x="10" y="2682">    │   │ │ └── sntp@1.0.9 </tspan>
<tspan x="10" y="2698">    │   │ ├─┬ http-signature@1.1.1 </tspan>
<tspan x="10" y="2714">    │   │ │ ├── assert-plus@0.2.0 </tspan>
<tspan x="10" y="2730">    │   │ │ ├─┬ jsprim@1.4.0 </tspan>
<tspan x="10" y="2746">    │   │ │ │ ├── assert-plus@1.0.0 </tspan>
<tspan x="10" y="2762">    │   │ │ │ ├── extsprintf@1.0.2 </tspan>
<tspan x="10" y="2778">    │   │ │ │ ├── json-schema@0.2.3 </tspan>
<tspan x="10" y="2794">    │   │ │ │ └── verror@1.3.6 </tspan>
<tspan x="10" y="2810">    │   │ │ └─┬ sshpk@1.13.0 </tspan>
<tspan x="10" y="2826">    │   │ │   ├── asn1@0.2.3 </tspan>
<tspan x="10" y="2842">    │   │ │   ├── assert-plus@1.0.0 </tspan>
<tspan x="10" y="2858">    │   │ │   ├── bcrypt-pbkdf@1.0.1 </tspan>
<tspan x="10" y="2874">    │   │ │   ├─┬ dashdash@1.14.1 </tspan>
<tspan x="10" y="2890">    │   │ │   │ └── assert-plus@1.0.0 </tspan>
<tspan x="10" y="2906">    │   │ │   ├── ecc-jsbn@0.1.1 </tspan>
<tspan x="10" y="2922">    │   │ │   ├─┬ getpass@0.1.6 </tspan>
<tspan x="10" y="2938">    │   │ │   │ └── assert-plus@1.0.0 </tspan>
<tspan x="10" y="2954">    │   │ │   ├── jodid25519@1.0.2 </tspan>
<tspan x="10" y="2970">    │   │ │   ├── jsbn@0.1.1 </tspan>
<tspan x="10" y="2986">    │   │ │   └── tweetnacl@0.14.5 </tspan>
<tspan x="10" y="3002">    │   │ ├── is-typedarray@1.0.0 </tspan>
<tspan x="10" y="3018">    │   │ ├── isstream@0.1.2 </tspan>
<tspan x="10" y="3034">    │   │ ├── json-stringify-safe@5.0.1 </tspan>
<tspan x="10" y="3050">    │   │ ├── oauth-sign@0.8.2 </tspan>
<tspan x="10" y="3066">    │   │ ├── performance-now@0.2.0 </tspan>
<tspan x="10" y="3082">    │   │ ├── safe-buffer@5.0.1 </tspan>
<tspan x="10" y="3098">    │   │ ├── stringstream@0.0.5 </tspan>
<tspan x="10" y="3114">    │   │ ├─┬ tough-cookie@2.3.2 </tspan>
<tspan x="10" y="3130">    │   │ │ └── punycode@1.4.1 </tspan>
<tspan x="10" y="3146">    │   │ ├── tunnel-agent@0.6.0 </tspan>
<tspan x="10" y="3162">    │   │ └── uuid@3.0.1 </tspan>
<tspan x="10" y="3178">    │   ├─┬ rimraf@2.6.1 </tspan>
<tspan x="10" y="3194">    │   │ └─┬ glob@7.1.1 </tspan>
<tspan x="10" y="3210">    │   │   └── fs.realpath@1.0.0 </tspan>
<tspan x="10" y="3226">    │   ├── semver@5.3.0 </tspan>
<tspan x="10" y="3242">    │   ├─┬ tar@2.2.1 </tspan>
<tspan x="10" y="3258">    │   │ ├── block-stream@0.0.9 </tspan>
<tspan x="10" y="3274">    │   │ └─┬ fstream@1.0.11 </tspan>
<tspan x="10" y="3290">    │   │   └── graceful-fs@4.1.11 </tspan>
<tspan x="10" y="3306">    │   └─┬ tar-pack@3.4.0 </tspan>
<tspan x="10" y="3322">    │     ├── fstream-ignore@1.0.5 </tspan>
<tspan x="10" y="3338">    │     ├─┬ readable-stream@2.2.9 </tspan>
<tspan x="10" y="3354">    │     │ ├── buffer-shims@1.0.0 </tspan>
<tspan x="10" y="3370">    │     │ ├── core-util-is@1.0.2 </tspan>
<tspan x="10" y="3386">    │     │ ├── isarray@1.0.0 </tspan>
<tspan x="10" y="3402">    │     │ ├── process-nextick-args@1.0.7 </tspan>
<tspan x="10" y="3418">    │     │ └── string_decoder@1.0.0 </tspan>
<tspan x="10" y="3434">    │     ├─┬ rimraf@2.6.1 </tspan>
<tspan x="10" y="3450">    │     │ └── glob@7.1.1 </tspan>
<tspan x="10" y="3466">    │     └── uid-number@0.0.6 </tspan>
<tspan x="10" y="3482">    ├── v8-profiler@5.6.5 </tspan>
<tspan x="10" y="3498">    ├─┬ which@1.2.14 </tspan>
<tspan x="10" y="3514">    │ └── isexe@2.0.0 </tspan>
<tspan x="10" y="3530">    ├─┬ ws@1.1.4 </tspan>
<tspan x="10" y="3546">    │ ├── options@0.0.6 </tspan>
<tspan x="10" y="3562">    │ └── ultron@1.0.2 </tspan>
<tspan x="10" y="3578">    └─┬ yargs@3.32.0 </tspan>
<tspan x="10" y="3594">      ├── camelcase@2.1.1 </tspan>
<tspan x="10" y="3610">      ├─┬ cliui@3.2.0 </tspan>
<tspan x="10" y="3626">      │ ├─┬ strip-ansi@3.0.1 </tspan>
<tspan x="10" y="3642">      │ │ └── ansi-regex@2.1.1 </tspan>
<tspan x="10" y="3658">      │ └── wrap-ansi@2.1.0 </tspan>
<tspan x="10" y="3674">      ├── decamelize@1.2.0 </tspan>
<tspan x="10" y="3690">      ├─┬ os-locale@1.4.0 </tspan>
<tspan x="10" y="3706">      │ └─┬ lcid@1.0.0 </tspan>
<tspan x="10" y="3722">      │   └── invert-kv@1.0.0 </tspan>
<tspan x="10" y="3738">      ├─┬ string-width@1.0.2 </tspan>
<tspan x="10" y="3754">      │ ├── code-point-at@1.1.0 </tspan>
<tspan x="10" y="3770">      │ └─┬ is-fullwidth-code-point@1.0.0 </tspan>
<tspan x="10" y="3786">      │   └── number-is-nan@1.0.1 </tspan>
<tspan x="10" y="3802">      ├── window-size@0.1.4 </tspan>
<tspan x="10" y="3818">      └── y18n@3.2.1</tspan>
</text>
</svg>
